<svg xmlns="http://www.w3.org/2000/svg" viewBox="0 0 95.98 74.03"><g id="fca363af-b2e3-43fb-bdeb-82b0663d1d27" data-name="Layer 2"><g id="b03cc849-bb69-451a-88cc-536a57a8e808" data-name="Layer 1"><polygon points="5.33 25.75 5.33 32.01 8.44 32.01 8.44 27.52 12.81 27.52 12.81 25.75 5.33 25.75" fill="none"/><path d="M72.33,12.06v0Z" fill="none"/><polygon points="20.12 67.37 17.62 67.37 17.62 72.78 33.43 72.78 33.43 67.37 31.19 67.37 31.19 71.06 20.12 71.06 20.12 67.37" fill="none"/><polygon points="64.79 67.37 62.28 67.37 62.28 72.78 78.1 72.78 78.1 67.37 75.86 67.37 75.86 71.06 64.79 71.06 64.79 67.37" fill="none"/><polygon points="4.08 33.26 1.25 33.26 1.25 39.18 8.44 43.01 8.44 39.66 4.08 37.17 4.08 33.26" fill="none"/><polygon points="5.33 36.44 8.44 38.22 8.44 33.26 5.33 33.26 5.33 36.44" fill="none"/><polygon points="90.66 36.44 90.66 33.26 87.56 33.26 87.56 38.2 90.66 36.44" fill="none"/><polygon points="94.73 39.18 94.73 33.26 91.91 33.26 91.91 37.17 87.56 39.64 87.56 43 94.73 39.18" fill="none"/><polygon points="87.56 32.01 90.66 32.01 90.66 25.75 83.17 25.75 83.17 27.52 87.56 27.52 87.56 32.01" fill="none"/><path d="M21.69,63.77v-.62H20.12v3H16.37V74H34.68V66.12H31.19v-3H29.36v.62Zm-.32,3.6h8.57v2.44H21.37Zm9.82,0h2.24v5.41H17.62V67.37h2.5v3.69H31.19Zm-1.25-3v1.72H21.37V64.4Z" fill="#020202"/><path d="M34,11.19v.87H33c-.45.41-.89.83-1.31,1.27A2.12,2.12,0,0,1,30.2,15c-.05.05-.09.11-.14.17l0,2.23a21.37,21.37,0,0,1,35.78-.23l0-2.16,0,0a2.1,2.1,0,0,1-1.43-1.67c-.42-.43-.86-.85-1.31-1.26H62v-.87a22.61,22.61,0,0,0-28,0Z" fill="#020202"/><polygon points="29.81 32.37 29.79 34.2 48 54.38 66.06 34.35 66.04 32.52 48 52.52 29.81 32.37" fill="#020202"/><polygon points="1.25 39.18 1.25 33.26 4.08 33.26 4.08 37.17 8.44 39.66 8.44 38.22 5.33 36.44 5.33 33.26 8.44 33.26 8.44 32.01 5.33 32.01 5.33 25.75 12.81 25.75 12.81 27.52 14.06 27.52 14.06 24.5 4.08 24.5 4.08 32.01 0 32.01 0 39.93 8.44 44.42 8.44 43.01 1.25 39.18" fill="#020202"/><polygon points="91.91 32.01 91.91 24.5 81.92 24.5 81.92 27.52 83.17 27.52 83.17 25.75 90.66 25.75 90.66 32.01 87.56 32.01 87.56 33.26 90.66 33.26 90.66 36.44 87.56 38.2 87.56 39.64 91.91 37.17 91.91 33.26 94.73 33.26 94.73 39.18 87.56 43 87.56 44.41 95.98 39.93 95.98 32.01 91.91 32.01" fill="#020202"/><polygon points="21.43 45.61 9.69 38.93 9.69 40.37 21.45 47.06 21.43 45.61" fill="#020202"/><polygon points="14.06 28.77 12.81 28.77 12.81 32.01 9.69 32.01 9.69 33.26 14.06 33.26 14.06 28.77" fill="#020202"/><polygon points="21.49 49.96 9.69 43.67 9.69 45.09 21.51 51.39 21.49 49.96" fill="#020202"/><polygon points="47.99 65.5 66.38 55.7 66.36 54.3 47.99 64.08 29.49 54.23 29.47 55.63 47.7 65.34 47.99 65.5" fill="#020202"/><polygon points="74.33 51.46 86.31 45.08 86.31 43.66 74.36 50.03 74.33 51.46" fill="#020202"/><polygon points="66.32 51.74 66.3 50.31 49.86 59.67 48 61.53 46.17 59.7 29.55 50.23 29.53 51.66 47.99 62.17 66.32 51.74" fill="#020202"/><polygon points="86.31 33.26 86.31 32.01 83.17 32.01 83.17 28.77 81.92 28.77 81.92 33.26 86.31 33.26" fill="#020202"/><polygon points="74.42 45.69 74.4 47.14 86.31 40.35 86.31 38.92 74.42 45.69" fill="#020202"/><path d="M66.49,63.77v-.62H64.79v3H61V74H79.35V66.12H75.86v-3h-1.7v.62ZM66,67.37h8.57v2.44H66Zm9.82,0H78.1v5.41H62.28V67.37h2.51v3.69H75.86Zm-1.25-3v1.72H66V64.4Z" fill="#020202"/><path d="M86.31,43.66v3.59l-12,6.36,0-2.15,0-1.43.05-2.89,0-1.45.15-10.76,4.05-4v-.26c0-.62,0-1.24-.06-1.86h7.75V43.66ZM9.69,45.09V28.77h7.73c0,.62-.06,1.24-.06,1.86v.26l3.91,3.91.16,10.81,0,1.45,0,2.9,0,1.43,0,2.14L9.69,47.25Zm9-16.94A28.94,28.94,0,0,1,21,18.94l.13,9.21L21.24,33l-2.63-2.63Q18.63,29.25,18.73,28.15ZM48,1.25A29.24,29.24,0,0,1,66.2,7.6H62v4.46h2.55a2.13,2.13,0,0,0-.22.94,1.66,1.66,0,0,0,0,.32A2.1,2.1,0,0,0,65.76,15l0,0,0,2.16.16,11L66,32.52l0,1.83.11,7.23L48,59.76,29.68,41.44l.11-7.24,0-1.83.06-4.22L30,17.4l0-2.23V15l.14,0a2.12,2.12,0,0,0,1.45-1.67,1.84,1.84,0,0,0,0-.33,2.28,2.28,0,0,0-.22-.94H34V7.6H29.78A29.24,29.24,0,0,1,48,1.25ZM77.37,30.37,74.6,33.14l.07-5,.14-9.49a29.32,29.32,0,0,1,2.45,9.49C77.32,28.88,77.36,29.62,77.37,30.37ZM28.71,13a.86.86,0,1,1,.86.86A.86.86,0,0,1,28.71,13Zm-.53,45.46-.06,3.94h-5.2l-.1-6.78,0-1.42,0-2.14,0-1.43,0-2.85,0-1.45-.15-10.27,0-1.79-.09-6.12-.17-11.68.36-.62H28.8V17l0,2.68-.13,8.47,0,2.85,0,1.84-.11,7.36,0,1.75-.11,7.58,0,1.42,0,2.61,0,1.41,0,2.09Zm44.15-46.4h0v0ZM73,55.71l-.1,6.69h-5.2l0-3.85,0-1.41,0-2.1,0-1.41,0-2.6,0-1.43-.11-7.51,0-1.75L67.29,33l0-1.84,0-3-.12-8.76,0-2.61,0-.93h6.33c.07.14.15.27.23.4l-.18,11.9-.09,6.26,0,1.79-.15,10.2,0,1.45,0,2.85,0,1.43,0,2.15ZM66.41,12.13a.87.87,0,1,1-.86.87A.87.87,0,0,1,66.41,12.13ZM21,15l0,1.21a30.38,30.38,0,0,0-3.48,11.35H8.44V48l13.12,7,.12,8.2v.62h7.66v-.62l.06-4L48,69,66.43,59.2l0,3.95v.62h7.66v-.62L74.28,55l13.28-7V27.52h-9.1a30.35,30.35,0,0,0-3.61-11.59l0-.93v-.52h-7A2.09,2.09,0,0,0,68.52,13a2.14,2.14,0,0,0-.23-.94H78.68V7.6H68.15a30.54,30.54,0,0,0-40.32,0H17.3v4.46H27.68a2.13,2.13,0,0,0-.22.94,2.09,2.09,0,0,0,.61,1.48H21Zm48.68-4.15H63.22v-2H77.43v2H69.66Zm-41.37-2h4.47v2H18.55v-2h9.74Zm1.18,46.78,0-1.4,0-2.57,0-1.43.1-7L46.17,59.7,48,61.53l1.86-1.86L66.19,43.32l.11,7,0,1.43,0,2.56,0,1.4,0,2.1L48,67.56,29.44,57.72Z"/><path d="M74.6,10.88A2.12,2.12,0,1,0,76.71,13,2.11,2.11,0,0,0,74.6,10.88Zm0,3a.87.87,0,1,1,.86-.87A.87.87,0,0,1,74.6,13.86Z"/><path d="M21.54,10.88A2.12,2.12,0,1,0,23.66,13,2.12,2.12,0,0,0,21.54,10.88Zm0,3A.87.87,0,1,1,22.4,13,.87.87,0,0,1,21.54,13.86Z"/></g></g></svg>