<svg xmlns="http://www.w3.org/2000/svg" viewBox="0 0 796.98 796.98"><g id="a3a027b9-0ad6-42de-af8c-c0009cf0543f" data-name="Layer 2"><g id="f93b2e7f-acec-475c-b114-adb0eaf88f94" data-name="Layer 1"><circle cx="398.49" cy="398.49" r="398.49" fill="#1b0f31"/><path d="M133.05,555.67V216.16h52A117.4,117.4,0,0,1,302.56,333.63c0,55-37.67,102.59-91.2,114.49L305,555.67H259.93L166.75,449.61V555.67Zm33.7-138.28h18.34a83.77,83.77,0,1,0,0-167.53H166.75Z" fill="#e6cf8f"/><path d="M490.16,470.92,462.66,519,484,555.67H464.39L452.5,535.35c-13.14,16.86-31,23.79-47.09,23.79a58.9,58.9,0,0,1-59-58.73c0-29.74,22.8-54.52,52-58.24L366,385.92h82.52v16.85H395.25L452.5,501.4l17.34-30.48ZM442.83,518.5,408.39,459h-3a41.39,41.39,0,0,0,0,82.78C421.52,541.8,433.66,533.62,442.83,518.5Z" fill="#e6cf8f"/><path d="M577.9,555.67V249.86H504.54v-33.7H685.45v33.7H611.6V555.67Z" fill="#e6cf8f"/></g></g></svg>