<svg xmlns="http://www.w3.org/2000/svg" viewBox="0 0 18.29 32.47"><g id="eca130d3-1e2b-48ae-b96a-61f2bb6bd798" data-name="Layer 2"><g id="fde4a35e-1531-4115-b761-63ae903b72c9" data-name="Layer 1"><path d="M11.48,25.67V14.56H12v3.71h3.21V13.56H13V0H9V1h3V13.56H10.48V25.67H3.81V24.09h-1v1.58H0v1H2.81v1.14H0v1H2.81v3.66h8.67V28.81h1.6v3.66h5.21V27.81H14.08V25.67Zm2.6,3.14h3.21v2.66H14.08ZM13,14.56h1.21v2.71H13ZM11.48,27.81V26.67h1.6v1.14Zm-7.67,1h6.67v2.66H3.81Zm6.67-2.14v1.14H3.81V26.67Z" fill="#E6CF8F"/></g></g></svg>