<svg xmlns="http://www.w3.org/2000/svg" viewBox="0 0 18.29 32.47"><g id="f5788ac6-2191-4464-981d-5e80e22aea5e" data-name="Layer 2"><g id="ff86961d-70ae-438e-87bc-244b5a3a70af" data-name="Layer 1"><path d="M4.2,25.67v2.14H0v4.66H5.2V28.81H6.8v3.66h8.67V28.81h2.82v-1H15.47V26.67h2.82v-1H15.47V24.09h-1v1.58H7.8V13.56H6.33V1h3V0h-4V13.56H3.12v4.71H6.33V14.56H6.8V25.67Zm0,5.8H1V28.81H4.2Zm1.13-14.2H4.12V14.56H5.33ZM5.2,27.81V26.67H6.8v1.14Zm9.27,3.66H7.8V28.81h6.67Zm0-4.8v1.14H7.8V26.67Z" fill="#E6CF8F" /></g></g></svg>