<svg xmlns="http://www.w3.org/2000/svg" viewBox="0 0 34.73 58.63"><g id="e206a313-498b-408b-b690-c765bf40536c" data-name="Layer 2"><g id="ab212220-5cce-4886-b0d8-e22acdc04fd5" data-name="Pillars"><path d="M34.73,58.63H17.37V18.11A17.38,17.38,0,0,1,34.73.75Z" fill="#157d94"/><path d="M34.73,6.53A11.59,11.59,0,0,0,23.15,18.11V58.63h-1.5V18.11A13.1,13.1,0,0,1,34.73,5Z" fill="#eacf86"/><path d="M34.73,11.56a6.56,6.56,0,0,0-6.55,6.55V58.63h-1.5V18.11a8.06,8.06,0,0,1,8-8Z" fill="#eacf86"/><path d="M0,.75A17.38,17.38,0,0,1,17.36,18.11V58.63H0Z" fill="#157d94"/><path d="M17.4,12.91h-.06A18.13,18.13,0,0,0,0,0V1.5A16.63,16.63,0,0,1,16.6,17.91V58.63h1.54V18A16.62,16.62,0,0,1,34.73,1.5V0A18.12,18.12,0,0,0,17.4,12.91Z" fill="#eacf86"/><path d="M0,5A13.1,13.1,0,0,1,13.08,18.11V58.63h-1.5V18.11A11.59,11.59,0,0,0,0,6.53Z" fill="#eacf86"/><path d="M0,10.06a8.06,8.06,0,0,1,8.05,8V58.63H6.55V18.11A6.56,6.56,0,0,0,0,11.56Z" fill="#eacf86"/></g></g></svg>